PathFileType	4	(X/Y/Z)	../Python\walking\Walking18\task.trc
DataRate	CameraRate	NumFrames	NumMarkers	Units	OrigDataRate	OrigDataStartFrame	OrigNumFrames
200.000000	200.000000	4	30	mm	200.000000	219	439
Frame#	Time	RBAK			CLAV			STRN			RASI			LASI			PE01			RTH1			RTH2			RTH3			RTB3			RHEE			RD5M			RTOE			LTH2			LTH3			LTB2			LTB3			LHEE			LTOE			LD5M			LTB1			C7			RTB1			RTB2			LPSI			PE03			PE02			RPSI			LTH1			T10			
		X1	Y1	Z1	X2	Y2	Z2	X3	Y3	Z3	X4	Y4	Z4	X5	Y5	Z5	X6	Y6	Z6	X7	Y7	Z7	X8	Y8	Z8	X9	Y9	Z9	X10	Y10	Z10	X11	Y11	Z11	X12	Y12	Z12	X13	Y13	Z13	X14	Y14	Z14	X15	Y15	Z15	X16	Y16	Z16	X17	Y17	Z17	X18	Y18	Z18	X19	Y19	Z19	X20	Y20	Z20	X21	Y21	Z21	X22	Y22	Z22	X23	Y23	Z23	X24	Y24	Z24	X25	Y25	Z25	X26	Y26	Z26	X27	Y27	Z27	X28	Y28	Z28	X29	Y29	Z29	X30	Y30	Z30	

220	1.095	-449.2668762207034	1252.696411132813	246.8194122314454	-284.0542602539064	1253.992309570313	128.9493560791016	-223.1601104736329	1068.796264648438	137.412338256836	-266.5242309570314	861.2888183593755	268.0437927246095	-245.1873779296876	877.1163940429692	42.53920745849611	-451.8926696777346	948.0079956054692	157.1119537353516	-310.0776672363282	565.591247558594	299.8659973144532	-281.8574829101564	491.7450866699221	290.0162353515626	-262.032684326172	549.8972778320315	295.6682434082032	-441.0534362792971	270.285614013672	248.4372406005861	-620.669372558594	224.7027130126954	153.5359954833985	-585.7706298828127	87.05872344970706	227.3657531738282	-555.5911254882815	64.88147735595706	184.9939117431641	-273.5051879882814	555.6906738281252	15.62412071228028	-210.7575073242189	603.3255004882815	18.26421737670899	-280.754852294922	208.1514739990236	39.20118713378908	-242.1196746826173	234.6446533203126	49.85123062133792	-330.9218750000001	33.91661834716798	92.3108825683594	-139.7842864990235	29.89576530456544	117.8264923095704	-175.6281127929688	14.81203651428223	62.37002944946292	-269.8701782226564	286.0385131835939	27.92016601562501	-406.181579589844	1349.158447265625	134.1998901367188	-376.1353759765626	312.3106994628907	264.9846801757814	-437.8819885253909	319.5571594238282	261.4727172851564	-451.4117736816409	915.7587890625005	110.045639038086	-460.6213073730471	892.4926147460942	121.8110427856446	-467.4580078125002	884.9772338867192	170.5379028320313	-456.583679199219	908.9838256835942	198.0677032470704	-257.0831298828126	613.2175903320315	3.244376897811891	-434.1704711914065	1050.9111328125	153.5196228027344	
221	1.1	-443.2056884765627	1253.700561523438	246.6299591064454	-277.5049743652345	1255.260864257813	129.7258758544922	-216.8065643310548	1069.9599609375	138.0953216552735	-260.5783081054689	862.7873535156255	268.0949707031251	-238.7526245117189	877.9624633789067	42.54016494750978	-445.605407714844	949.3063354492192	156.3434448242188	-299.6201171875001	567.3522949218752	300.0151367187501	-270.0150146484376	494.0097351074221	290.3001098632814	-251.268035888672	552.5037231445315	296.072967529297	-426.3302001953127	270.9930114746095	248.5377502441407	-606.7705078125002	221.6580657958986	153.7525329589844	-565.4782714843752	85.99713134765628	228.617889404297	-534.4179687500002	64.85583496093753	186.2920532226563	-269.8052368164064	556.2844238281252	15.38517570495606	-206.5821685791017	603.2231445312502	18.70135688781739	-280.0084533691407	208.2190093994142	39.09913253784181	-241.3221282958986	234.5685577392579	49.77864837646487	-330.881561279297	34.0054397583008	92.31158447265628	-139.7496948242188	29.86136054992677	117.8159103393555	-175.5955505371094	14.74194717407227	62.3655815124512	-268.8441162109376	286.0409240722657	27.80035972595216	-399.5695800781252	1350.427978515625	134.6106719970704	-361.7579956054689	313.6201782226564	265.041473388672	-423.6028137207034	320.3102416992189	261.6319885253907	-445.0501403808596	916.983764648438	109.3156356811524	-454.4939880371096	893.6853637695317	121.1320571899415	-461.4183349609377	886.346313476563	169.8759002685547	-450.513854980469	910.3012695312505	197.2869415283204	-252.5942993164064	613.732360839844	3.228837966918947	-427.7303466796877	1052.21826171875	152.6927032470704	
222	1.105	-437.1708068847659	1254.661743164063	246.4383850097657	-270.9825744628907	1256.48681640625	130.5143432617188	-210.4843597412111	1071.090087890625	138.779769897461	-254.6224365234376	864.2789916992192	268.1275634765626	-232.3387298583986	878.8067016601567	42.53009414672853	-439.326599121094	950.561157226563	155.5915985107422	-289.198944091797	569.157165527344	300.1537475585939	-258.2286071777345	496.3389892578127	290.5451965332032	-240.5560913085939	555.1572265625002	296.4286193847657	-411.4707641601565	271.4736328125001	248.6322631835939	-592.533874511719	218.1988525390626	154.0176391601563	-544.9903564453127	84.78483581542972	229.8850402832032	-513.0439453125002	64.70913696289065	187.6322631835938	-266.2056274414064	556.8469238281252	15.21900463104249	-202.4819641113282	603.0191040039065	19.16529655456544	-279.2833557128907	208.2932281494142	39.03911590576173	-240.5426025390626	234.5028381347657	49.74231719970706	-330.8359680175782	34.09693908691408	92.32972717285159	-139.7122650146485	29.83006858825685	117.8151931762696	-175.5675964355469	14.68845081329346	62.36575317382815	-267.8455505371095	286.0534667968751	27.72987174987794	-392.9861145019534	1351.648559570313	135.0270996093751	-347.3195190429689	314.8304748535157	265.0647277832032	-409.2466125488284	320.8163146972657	261.8286743164064	-438.7010192871096	918.1528930664067	108.6141433715821	-448.3910827636721	894.8240356445317	120.4816436767579	-455.3699035644534	887.672729492188	169.2592010498047	-444.4346618652346	911.589477539063	196.5491485595704	-248.1345825195314	614.2053833007815	3.264541387557985	-421.307312011719	1053.480346679688	151.8780212402344	
223	1.11	-431.159118652344	1255.575561523438	246.2450103759767	-264.4856567382814	1257.665893554688	131.3121948242188	-204.1905364990236	1072.183227539063	139.4623260498047	-248.6521759033204	865.7577514648442	268.1382751464845	-225.9421844482423	879.6430053710942	42.50822067260744	-433.0566711425784	951.7656250000005	154.8576812744141	-278.8315429687501	570.9948730468752	300.282440185547	-246.5248870849611	498.7199707031252	290.7521362304689	-229.9159240722657	557.842712402344	296.7382202148439	-396.4732360839846	271.7147216796876	248.7169799804689	-577.945495605469	214.3419647216798	154.3334503173829	-524.3352661132815	83.44025421142581	231.161346435547	-491.5152893066409	64.45277404785159	189.0017852783204	-262.714324951172	557.3738403320315	15.13039016723634	-198.4705963134767	602.7231445312502	19.64196777343751	-278.5882873535157	208.3750915527345	39.02196121215822	-239.7867431640626	234.4465942382814	49.73977661132815	-330.7866516113282	34.19029617309572	92.36614990234378	-139.6723022460938	29.80224609375001	117.825538635254	-175.5458374023438	14.65341472625733	62.37223052978518	-266.8823547363282	286.0776977539064	27.70822143554689	-386.4299316406252	1352.815551757813	135.4480438232422	-332.8223266601564	315.9266662597657	265.0534973144532	-394.8095397949221	321.0557250976564	262.0731201171876	-432.3613891601565	919.261108398438	107.9421768188477	-442.3069458007815	895.901733398438	119.8621673583985	-449.3081665039065	888.9485473632817	168.6892395019532	-438.3431701660159	912.8410644531255	195.8559722900392	-243.7267456054689	614.6292724609377	3.351548433303835	-414.8988952636721	1054.691650390625	151.0777435302735	
